# xmcd
#
# Track frame offsets: 
#        150
#        23242
#        40860
#        59352
#        77660
#        92035
#        105902
#        120077
#        134305
#        159792
#        173730
#        188865
#        209040
#        226272
#        242867
#        256765
#
# Disc length: 3635 seconds
#
# Revision: 1
# Processed by: cddbd v1.5.2PL0 Copyright (c) Steve Scherf et al.
# Submitted via: ExactAudioCopyFreeDBPlugin 1.0
#
DISCID=c20e3110
DTITLE=ด้ามขวาน - รวมฮิต 3 ปี 4 ชุด วงด้ามขวาน
DYEAR=1997
DGENRE=Country
TTITLE0=ไก่เถื่อน
TTITLE1=อีไซกูนิ
TTITLE2=เรื่องมันเป็นพรรค์นี้
TTITLE3=ภูมิปัญญา
TTITLE4=คะยั้นคะยอ
TTITLE5=หัวบุบท้ายยุบ
TTITLE6=ฉิ้งคันฉ่อง
TTITLE7=แล้วเติ้นอีแซ
TTITLE8=มโนราห์
TTITLE9=ลุงนัน
TTITLE10=ลุงชวน
TTITLE11=เด็กน้อย
TTITLE12=ผ้าห่มผืนลาย
TTITLE13=สูบยา
TTITLE14=ถนนคนจีน
TTITLE15=แมวดำแมวลาย
EXTD=
EXTT0=
EXTT1=
EXTT2=
EXTT3=
EXTT4=
EXTT5=
EXTT6=
EXTT7=
EXTT8=
EXTT9=
EXTT10=
EXTT11=
EXTT12=
EXTT13=
EXTT14=
EXTT15=
PLAYORDER=
